<svg width="240" height="44" viewBox="0 0 240 44" fill="none" xmlns="http://www.w3.org/2000/svg">
<path d="M20.2137 6.97904C20.2371 5.83302 21.1915 4.90831 22.3275 5.06629C25.0286 5.44192 27.613 6.44192 29.8658 7.9971C32.6891 9.94619 34.8649 12.6798 36.1179 15.8522C37.3709 19.0246 37.6448 22.4934 36.9051 25.8198C36.1653 29.1462 34.4451 32.1809 31.962 34.5402C29.4789 36.8995 26.3444 38.4773 22.9548 39.0741C19.5653 39.671 16.073 39.2601 12.9195 37.8934C9.76598 36.5266 7.09298 34.2655 5.23847 31.3959C3.76607 29.1175 2.86213 26.5368 2.58694 23.8658C2.46837 22.7149 3.44171 21.7905 4.60012 21.8137V21.8137C5.75366 21.8368 6.65057 22.7934 6.81207 23.9339C7.07463 25.7882 7.73785 27.5735 8.76613 29.1646C10.1746 31.344 12.2046 33.0613 14.5996 34.0992C16.9946 35.1372 19.6469 35.4493 22.2211 34.996C24.7954 34.5427 27.1759 33.3444 29.0618 31.5526C30.9476 29.7609 32.254 27.4561 32.8158 24.9298C33.3777 22.4035 33.1696 19.7691 32.218 17.3597C31.2664 14.9504 29.614 12.8743 27.4697 11.394C25.8932 10.3057 24.1028 9.57536 22.2263 9.24416C21.1017 9.04567 20.1904 8.12023 20.2137 6.97904V6.97904Z" fill="#5353CB"/>
<path d="M15.3352 4.56014C16.4833 4.67496 17.3304 5.70001 17.0742 6.82396C16.4258 9.66879 15.0546 12.3161 13.0756 14.508C11.0876 16.7097 8.56906 18.3602 5.76948 19.3155C4.68742 19.6848 3.58361 18.9691 3.34005 17.8572C3.09387 16.7334 3.82259 15.6355 4.90067 15.2192C6.82807 14.4749 8.56158 13.2895 9.95292 11.7485C11.3398 10.2125 12.3336 8.382 12.8658 6.41088C13.1675 5.29334 14.1826 4.44486 15.3352 4.56014Z" fill="#5AD0E0"/>
<path d="M61.0455 35.3835C59.0597 35.3835 57.3423 34.9616 55.8935 34.1179C54.4531 33.2656 53.3409 32.081 52.5568 30.5639C51.7727 29.0384 51.3807 27.2699 51.3807 25.2585C51.3807 23.2301 51.7727 21.4574 52.5568 19.9403C53.3409 18.4148 54.4531 17.2301 55.8935 16.3864C57.3423 15.5341 59.0597 15.108 61.0455 15.108C63.0312 15.108 64.7443 15.5341 66.1847 16.3864C67.6335 17.2301 68.75 18.4148 69.5341 19.9403C70.3182 21.4574 70.7102 23.2301 70.7102 25.2585C70.7102 27.2699 70.3182 29.0384 69.5341 30.5639C68.75 32.081 67.6335 33.2656 66.1847 34.1179C64.7443 34.9616 63.0312 35.3835 61.0455 35.3835ZM61.071 31.1648C61.9744 31.1648 62.7287 30.9091 63.3338 30.3977C63.9389 29.8778 64.3949 29.1705 64.7017 28.2756C65.017 27.3807 65.1747 26.3622 65.1747 25.2202C65.1747 24.0781 65.017 23.0597 64.7017 22.1648C64.3949 21.2699 63.9389 20.5625 63.3338 20.0426C62.7287 19.5227 61.9744 19.2628 61.071 19.2628C60.1591 19.2628 59.392 19.5227 58.7699 20.0426C58.1563 20.5625 57.6918 21.2699 57.3764 22.1648C57.0696 23.0597 56.9162 24.0781 56.9162 25.2202C56.9162 26.3622 57.0696 27.3807 57.3764 28.2756C57.6918 29.1705 58.1563 29.8778 58.7699 30.3977C59.392 30.9091 60.1591 31.1648 61.071 31.1648ZM73.1714 35V15.3636H78.4513V18.7898H78.6558C79.0138 17.571 79.6146 16.6506 80.4584 16.0284C81.3021 15.3977 82.2737 15.0824 83.3731 15.0824C83.6459 15.0824 83.9399 15.0994 84.2552 15.1335C84.5706 15.1676 84.8476 15.2145 85.0862 15.2741V20.1065C84.8305 20.0298 84.4768 19.9616 84.0251 19.902C83.5734 19.8423 83.1601 19.8125 82.7851 19.8125C81.9839 19.8125 81.268 19.9872 80.6373 20.3366C80.0152 20.6776 79.5209 21.1548 79.1544 21.7685C78.7964 22.3821 78.6174 23.0895 78.6174 23.8906V35H73.1714ZM94.7544 42.7727C92.9902 42.7727 91.4774 42.5298 90.2161 42.044C88.9632 41.5668 87.9661 40.9148 87.2246 40.0881C86.4831 39.2614 86.0016 38.3324 85.78 37.3011L90.8169 36.6236C90.9703 37.0156 91.2132 37.3821 91.5456 37.723C91.878 38.0639 92.3169 38.3366 92.8624 38.5412C93.4164 38.7543 94.0896 38.8608 94.8823 38.8608C96.0669 38.8608 97.0428 38.571 97.8098 37.9915C98.5854 37.4205 98.9732 36.4616 98.9732 35.1151V31.5227H98.7431C98.5044 32.0682 98.1465 32.5838 97.6692 33.0696C97.1919 33.5554 96.5783 33.9517 95.8283 34.2585C95.0783 34.5653 94.1834 34.7188 93.1436 34.7188C91.6692 34.7188 90.3269 34.3778 89.1166 33.696C87.9149 33.0057 86.9561 31.9531 86.2402 30.5384C85.5328 29.1151 85.1791 27.3168 85.1791 25.1435C85.1791 22.919 85.5413 21.0611 86.2658 19.5696C86.9902 18.0781 87.9533 16.9616 89.155 16.2202C90.3652 15.4787 91.6905 15.108 93.1308 15.108C94.2303 15.108 95.1507 15.2955 95.8922 15.6705C96.6337 16.0369 97.2303 16.4972 97.682 17.0511C98.1422 17.5966 98.4959 18.1335 98.7431 18.6619H98.9476V15.3636H104.355V35.1918C104.355 36.8622 103.946 38.2599 103.128 39.3849C102.31 40.5099 101.176 41.3537 99.7274 41.9162C98.2871 42.4872 96.6294 42.7727 94.7544 42.7727ZM94.8695 30.6278C95.7473 30.6278 96.4888 30.4105 97.0939 29.9759C97.7075 29.5327 98.1763 28.902 98.5002 28.0838C98.8325 27.2571 98.9987 26.2685 98.9987 25.1179C98.9987 23.9673 98.8368 22.9702 98.5129 22.1264C98.1891 21.2741 97.7203 20.6136 97.1067 20.1449C96.4931 19.6761 95.7473 19.4418 94.8695 19.4418C93.9746 19.4418 93.2203 19.6847 92.6067 20.1705C91.9931 20.6477 91.5286 21.3125 91.2132 22.1648C90.8979 23.017 90.7402 24.0014 90.7402 25.1179C90.7402 26.2514 90.8979 27.2315 91.2132 28.0582C91.5371 28.8764 92.0016 29.5114 92.6067 29.9631C93.2203 30.4062 93.9746 30.6278 94.8695 30.6278ZM113.209 35.3707C111.956 35.3707 110.839 35.1534 109.859 34.7188C108.879 34.2756 108.103 33.6236 107.532 32.7628C106.97 31.8935 106.689 30.8111 106.689 29.5156C106.689 28.4247 106.889 27.5085 107.289 26.767C107.69 26.0256 108.235 25.429 108.926 24.9773C109.616 24.5256 110.4 24.1847 111.278 23.9545C112.164 23.7244 113.093 23.5625 114.065 23.4688C115.207 23.3494 116.128 23.2386 116.826 23.1364C117.525 23.0256 118.032 22.8636 118.348 22.6506C118.663 22.4375 118.821 22.1222 118.821 21.7045V21.6278C118.821 20.8182 118.565 20.1918 118.054 19.7486C117.551 19.3054 116.835 19.0838 115.906 19.0838C114.926 19.0838 114.146 19.3011 113.566 19.7358C112.987 20.1619 112.603 20.6989 112.416 21.3466L107.379 20.9375C107.635 19.7443 108.137 18.7131 108.887 17.8438C109.637 16.9659 110.605 16.2926 111.789 15.8239C112.983 15.3466 114.363 15.108 115.932 15.108C117.022 15.108 118.066 15.2358 119.064 15.4915C120.069 15.7472 120.96 16.1435 121.735 16.6804C122.52 17.2173 123.137 17.9077 123.589 18.7514C124.041 19.5866 124.267 20.5881 124.267 21.7557V35H119.102V32.277H118.949C118.633 32.8906 118.211 33.4318 117.683 33.9006C117.155 34.3608 116.52 34.723 115.778 34.9872C115.037 35.2429 114.18 35.3707 113.209 35.3707ZM114.768 31.6122C115.569 31.6122 116.277 31.4545 116.89 31.1392C117.504 30.8153 117.985 30.3807 118.335 29.8352C118.684 29.2898 118.859 28.6719 118.859 27.9815V25.8977C118.689 26.0085 118.454 26.1108 118.156 26.2045C117.866 26.2898 117.538 26.3707 117.172 26.4474C116.805 26.5156 116.439 26.5795 116.072 26.6392C115.706 26.6903 115.373 26.7372 115.075 26.7798C114.436 26.8736 113.878 27.0227 113.4 27.2273C112.923 27.4318 112.552 27.7088 112.288 28.0582C112.024 28.3991 111.892 28.8253 111.892 29.3366C111.892 30.0781 112.16 30.6449 112.697 31.0369C113.243 31.4205 113.933 31.6122 114.768 31.6122ZM132.858 23.6477V35H127.412V15.3636H132.602V18.8281H132.832C133.267 17.6861 133.996 16.7827 135.018 16.1179C136.041 15.4446 137.281 15.108 138.739 15.108C140.102 15.108 141.291 15.4062 142.305 16.0028C143.32 16.5994 144.108 17.4517 144.67 18.5597C145.233 19.6591 145.514 20.9716 145.514 22.4972V35H140.068V23.4688C140.077 22.267 139.77 21.3295 139.148 20.6562C138.526 19.9744 137.669 19.6335 136.578 19.6335C135.845 19.6335 135.197 19.7912 134.635 20.1065C134.081 20.4219 133.646 20.8821 133.331 21.4872C133.024 22.0838 132.866 22.804 132.858 23.6477ZM148.726 35V15.3636H154.172V35H148.726ZM151.462 12.8324C150.653 12.8324 149.958 12.5639 149.378 12.027C148.807 11.4815 148.522 10.8295 148.522 10.071C148.522 9.32102 148.807 8.67756 149.378 8.14062C149.958 7.59517 150.653 7.32244 151.462 7.32244C152.272 7.32244 152.962 7.59517 153.533 8.14062C154.113 8.67756 154.403 9.32102 154.403 10.071C154.403 10.8295 154.113 11.4815 153.533 12.027C152.962 12.5639 152.272 12.8324 151.462 12.8324ZM162.006 15.3636L165.611 22.2287L169.306 15.3636H174.893L169.204 25.1818L175.046 35H169.485L165.611 28.2116L161.802 35H156.177L162.006 25.1818L156.381 15.3636H162.006ZM180.23 35.3324C179.386 35.3324 178.662 35.0341 178.057 34.4375C177.46 33.8324 177.162 33.108 177.162 32.2642C177.162 31.429 177.46 30.7131 178.057 30.1165C178.662 29.5199 179.386 29.2216 180.23 29.2216C181.048 29.2216 181.764 29.5199 182.378 30.1165C182.991 30.7131 183.298 31.429 183.298 32.2642C183.298 32.8267 183.153 33.3423 182.864 33.8111C182.582 34.2713 182.212 34.642 181.751 34.9233C181.291 35.196 180.784 35.3324 180.23 35.3324Z" fill="#1A1A1A"/>
</svg>
